<svg width="27" height="26" viewBox="0 0 27 26" fill="none" xmlns="http://www.w3.org/2000/svg">
<g opacity="0.5" filter="url(#filter0_f_4015_569)">
<path d="M12.0117 4.55847L6.63592 6.10242C4.68599 6.66245 3.8307 8.02222 4.31053 9.79345L5.93569 15.7924C6.42339 17.5926 7.83246 18.277 9.7824 17.717L15.1582 16.173C17.1396 15.604 17.9691 14.2767 17.4814 12.4764L15.8562 6.47747C15.3764 4.70625 13.9931 3.98941 12.0117 4.55847Z" fill="#63EBB3"/>
</g>
<path d="M15.6105 2.49004C14.5935 1.94523 13.4075 1.85131 12.3268 2.22525L5.19834 4.19194C4.07327 4.42654 3.09174 5.11846 2.47551 6.11388C1.94637 7.16108 1.85515 8.38226 2.22037 9.50277L4.13043 16.8425C4.35827 18.0009 5.03027 19.0115 5.99705 19.646C7.01411 20.1908 8.20013 20.2847 9.2884 19.9087L16.4169 17.942C17.5343 17.7095 18.5235 17.0155 19.1397 16.02C19.6612 14.975 19.7601 13.7517 19.3949 12.6312L17.4848 5.29145C17.2493 4.13514 16.5773 3.12453 15.6105 2.49004Z" fill="url(#paint0_linear_4015_569)"/>
<g filter="url(#filter1_b_4015_569)">
<mask id="path-3-outside-1_4015_569" maskUnits="userSpaceOnUse" x="5.8053" y="5.29565" width="19" height="20" fill="black">
<rect fill="white" x="5.8053" y="5.29565" width="19" height="20"/>
<path d="M22.7888 7.53398C21.8699 6.66737 20.6503 6.22522 19.4136 6.3048H11.3919C10.1465 6.22522 8.92696 6.66737 8.00799 7.53398C7.16631 8.48019 6.73689 9.7359 6.81418 11.0181V19.2775C6.73689 20.5598 7.16631 21.8155 8.00799 22.7617C8.92696 23.6283 10.1465 24.0704 11.3919 23.9908H19.4136C20.6503 24.0704 21.8785 23.6283 22.7974 22.7617C23.6305 21.8155 24.0685 20.5598 23.9912 19.2775V11.0181C24.0599 9.7359 23.6305 8.48019 22.7888 7.53398Z"/>
</mask>
<path d="M22.7888 7.53398C21.8699 6.66737 20.6503 6.22522 19.4136 6.3048H11.3919C10.1465 6.22522 8.92696 6.66737 8.00799 7.53398C7.16631 8.48019 6.73689 9.7359 6.81418 11.0181V19.2775C6.73689 20.5598 7.16631 21.8155 8.00799 22.7617C8.92696 23.6283 10.1465 24.0704 11.3919 23.9908H19.4136C20.6503 24.0704 21.8785 23.6283 22.7974 22.7617C23.6305 21.8155 24.0685 20.5598 23.9912 19.2775V11.0181C24.0599 9.7359 23.6305 8.48019 22.7888 7.53398Z" fill="#57FFBA" fill-opacity="0.35"/>
<path d="M22.4458 7.89775C22.6467 8.0872 22.9632 8.07792 23.1526 7.87702C23.3421 7.67612 23.3328 7.35967 23.1319 7.17022L22.4458 7.89775ZM19.4136 6.3048V6.8048C19.4243 6.8048 19.435 6.80446 19.4457 6.80377L19.4136 6.3048ZM11.3919 6.3048L11.36 6.80379C11.3706 6.80446 11.3812 6.8048 11.3919 6.8048V6.3048ZM8.00799 7.53398L7.66495 7.17022C7.65431 7.18025 7.64412 7.19074 7.6344 7.20167L8.00799 7.53398ZM6.81418 11.0181H7.31418C7.31418 11.0081 7.31388 10.9981 7.31328 10.988L6.81418 11.0181ZM6.81418 19.2775L7.31328 19.3076C7.31388 19.2976 7.31418 19.2876 7.31418 19.2775H6.81418ZM8.00799 22.7617L7.6344 23.094C7.64412 23.1049 7.65431 23.1154 7.66495 23.1254L8.00799 22.7617ZM11.3919 23.9908V23.4908C11.3812 23.4908 11.3706 23.4912 11.36 23.4919L11.3919 23.9908ZM19.4136 23.9908L19.4457 23.4919C19.435 23.4912 19.4243 23.4908 19.4136 23.4908V23.9908ZM22.7974 22.7617L23.1405 23.1254C23.1517 23.1148 23.1625 23.1037 23.1727 23.0921L22.7974 22.7617ZM23.9912 19.2775H23.4912C23.4912 19.2876 23.4915 19.2976 23.4921 19.3076L23.9912 19.2775ZM23.9912 11.0181L23.492 10.9914C23.4915 11.0003 23.4912 11.0092 23.4912 11.0181H23.9912ZM23.1624 7.20167C22.9789 6.99534 22.6629 6.97686 22.4565 7.1604C22.2502 7.34393 22.2317 7.65997 22.4153 7.8663L23.1624 7.20167ZM23.1319 7.17022C22.1136 6.20994 20.7587 5.71721 19.3814 5.80584L19.4457 6.80377C20.5419 6.73323 21.6262 7.1248 22.4458 7.89775L23.1319 7.17022ZM19.4136 5.8048H11.3919V6.8048H19.4136V5.8048ZM11.4238 5.80582C10.0386 5.7173 8.68363 6.20958 7.66495 7.17022L8.35103 7.89775C9.1703 7.12515 10.2545 6.73314 11.36 6.80379L11.4238 5.80582ZM7.6344 7.20167C6.70274 8.24904 6.22994 9.6358 6.31509 11.0482L7.31328 10.988C7.24383 9.83599 7.62989 8.71133 8.38157 7.8663L7.6344 7.20167ZM6.31418 11.0181V19.2775H7.31418V11.0181H6.31418ZM6.31509 19.2474C6.22994 20.6599 6.70274 22.0466 7.6344 23.094L8.38157 22.4294C7.62989 21.5843 7.24383 20.4597 7.31328 19.3076L6.31509 19.2474ZM7.66495 23.1254C8.68363 24.0861 10.0386 24.5784 11.4238 24.4898L11.36 23.4919C10.2545 23.5625 9.1703 23.1705 8.35103 22.3979L7.66495 23.1254ZM11.3919 24.4908H19.4136V23.4908H11.3919V24.4908ZM19.3814 24.4898C20.7579 24.5784 22.1215 24.0863 23.1405 23.1254L22.4544 22.3979C21.6354 23.1703 20.5428 23.5625 19.4457 23.4919L19.3814 24.4898ZM23.1727 23.0921C24.0927 22.0472 24.5756 20.662 24.4903 19.2474L23.4921 19.3076C23.5615 20.4575 23.1683 21.5838 22.4222 22.4313L23.1727 23.0921ZM24.4912 19.2775V11.0181H23.4912V19.2775H24.4912ZM24.4905 11.0449C24.5661 9.63482 24.0941 8.24909 23.1624 7.20167L22.4153 7.8663C23.1669 8.71129 23.5538 9.83698 23.492 10.9914L24.4905 11.0449Z" fill="url(#paint1_linear_4015_569)" mask="url(#path-3-outside-1_4015_569)"/>
</g>
<g filter="url(#filter2_bd_4015_569)">
<mask id="path-5-inside-2_4015_569" fill="white">
<path d="M20.3063 13.4681L14.5262 19.4371C14.2256 19.7378 13.8306 19.9058 13.4183 19.9058H11.4C11.2883 19.9058 11.1853 19.8616 11.108 19.782C11.0307 19.7024 10.9963 19.5963 10.9963 19.4813L11.0479 17.3855C11.0565 16.9699 11.2196 16.5808 11.5031 16.289L15.5998 12.0709C15.6685 12.0001 15.7887 12.0001 15.8574 12.0709L17.2917 13.5388C17.3862 13.6361 17.5236 13.698 17.6696 13.698C17.9874 13.698 18.2365 13.4327 18.2365 13.1144C18.2365 12.9552 18.1763 12.8137 18.0819 12.7076C18.0561 12.6722 16.6905 11.275 16.6905 11.275C16.6046 11.1866 16.6046 11.0363 16.6905 10.9478L17.266 10.3465C17.7985 9.79824 18.6573 9.79824 19.1898 10.3465L20.3063 11.4961C20.8302 12.0355 20.8302 12.9198 20.3063 13.4681Z"/>
</mask>
<path d="M20.3063 13.4681L14.5262 19.4371C14.2256 19.7378 13.8306 19.9058 13.4183 19.9058H11.4C11.2883 19.9058 11.1853 19.8616 11.108 19.782C11.0307 19.7024 10.9963 19.5963 10.9963 19.4813L11.0479 17.3855C11.0565 16.9699 11.2196 16.5808 11.5031 16.289L15.5998 12.0709C15.6685 12.0001 15.7887 12.0001 15.8574 12.0709L17.2917 13.5388C17.3862 13.6361 17.5236 13.698 17.6696 13.698C17.9874 13.698 18.2365 13.4327 18.2365 13.1144C18.2365 12.9552 18.1763 12.8137 18.0819 12.7076C18.0561 12.6722 16.6905 11.275 16.6905 11.275C16.6046 11.1866 16.6046 11.0363 16.6905 10.9478L17.266 10.3465C17.7985 9.79824 18.6573 9.79824 19.1898 10.3465L20.3063 11.4961C20.8302 12.0355 20.8302 12.9198 20.3063 13.4681Z" fill="url(#paint2_linear_4015_569)"/>
<path d="M14.5262 19.4371L14.6677 19.5786L14.6699 19.5763L14.5262 19.4371ZM10.9963 19.4813L10.7963 19.4764V19.4813H10.9963ZM11.0479 17.3855L11.2478 17.3905L11.2478 17.3897L11.0479 17.3855ZM11.5031 16.289L11.6465 16.4284L11.5031 16.289ZM15.5998 12.0709L15.4563 11.9316L15.5998 12.0709ZM15.8574 12.0709L15.714 12.2102L15.7144 12.2107L15.8574 12.0709ZM17.2917 13.5388L17.4352 13.3995L17.4348 13.3991L17.2917 13.5388ZM18.0819 12.7076L17.9202 12.8253L17.926 12.8333L17.9325 12.8406L18.0819 12.7076ZM16.6905 11.275L16.5471 11.4144L16.5475 11.4148L16.6905 11.275ZM16.6905 10.9478L16.834 11.0872L16.835 11.0861L16.6905 10.9478ZM17.266 10.3465L17.1225 10.2072L17.1215 10.2082L17.266 10.3465ZM19.1898 10.3465L19.0463 10.4858V10.4858L19.1898 10.3465ZM20.3063 11.4961L20.4498 11.3568L20.3063 11.4961ZM20.1626 13.329L14.3825 19.298L14.6699 19.5763L20.45 13.6072L20.1626 13.329ZM14.3848 19.2957C14.1201 19.5605 13.7752 19.7058 13.4183 19.7058V20.1058C13.8859 20.1058 14.3312 19.9151 14.6677 19.5785L14.3848 19.2957ZM13.4183 19.7058H11.4V20.1058H13.4183V19.7058ZM11.4 19.7058C11.343 19.7058 11.2915 19.6839 11.2515 19.6427L10.9645 19.9213C11.079 20.0393 11.2337 20.1058 11.4 20.1058V19.7058ZM11.2515 19.6427C11.2182 19.6084 11.1963 19.5566 11.1963 19.4813H10.7963C10.7963 19.636 10.8432 19.7964 10.9645 19.9213L11.2515 19.6427ZM11.1963 19.4863L11.2478 17.3905L10.8479 17.3806L10.7964 19.4764L11.1963 19.4863ZM11.2478 17.3897C11.2554 17.0243 11.3986 16.6836 11.6465 16.4284L11.3596 16.1497C11.0407 16.4781 10.8575 16.9156 10.8479 17.3814L11.2478 17.3897ZM11.6465 16.4284L15.7433 12.2102L15.4563 11.9316L11.3596 16.1497L11.6465 16.4284ZM15.7433 12.2102C15.7364 12.2173 15.7301 12.2178 15.7286 12.2178C15.7271 12.2178 15.7208 12.2173 15.714 12.2102L16.0009 11.9316C15.8537 11.7799 15.6036 11.7799 15.4563 11.9316L15.7433 12.2102ZM15.7144 12.2107L17.1487 13.6786L17.4348 13.3991L16.0005 11.9311L15.7144 12.2107ZM17.1483 13.6782C17.2793 13.8131 17.468 13.898 17.6696 13.898V13.498C17.5792 13.498 17.4931 13.4591 17.4352 13.3995L17.1483 13.6782ZM17.6696 13.898C18.1053 13.898 18.4365 13.5356 18.4365 13.1144H18.0365C18.0365 13.3298 17.8695 13.498 17.6696 13.498V13.898ZM18.4365 13.1144C18.4365 12.9035 18.3565 12.7153 18.2313 12.5746L17.9325 12.8406C17.9962 12.9121 18.0365 13.0069 18.0365 13.1144H18.4365ZM18.2435 12.5898C18.2325 12.5747 18.2136 12.555 18.2079 12.5489C18.1958 12.5359 18.1792 12.5185 18.1592 12.4976C18.119 12.4556 18.0632 12.3978 17.9973 12.3297C17.8654 12.1935 17.6921 12.0154 17.5198 11.8385C17.3474 11.6615 17.1759 11.4857 17.0474 11.3542C16.9832 11.2884 16.9297 11.2337 16.8923 11.1954C16.8736 11.1762 16.8589 11.1612 16.8489 11.1509C16.8439 11.1458 16.8401 11.1419 16.8375 11.1392C16.8362 11.1379 16.8352 11.1369 16.8346 11.1362C16.8342 11.1359 16.834 11.1357 16.8338 11.1355C16.8337 11.1354 16.8337 11.1353 16.8336 11.1353C16.8336 11.1353 16.8336 11.1353 16.8336 11.1352C16.8336 11.1352 16.8336 11.1352 16.6905 11.275C16.5475 11.4148 16.5475 11.4148 16.5475 11.4148C16.5475 11.4148 16.5475 11.4149 16.5476 11.4149C16.5476 11.4149 16.5477 11.415 16.5477 11.4151C16.5479 11.4152 16.5482 11.4155 16.5485 11.4158C16.5491 11.4165 16.5501 11.4175 16.5514 11.4188C16.554 11.4215 16.5578 11.4254 16.5628 11.4305C16.5728 11.4407 16.5875 11.4558 16.6062 11.4749C16.6436 11.5131 16.697 11.5678 16.7612 11.6336C16.8896 11.7651 17.061 11.9408 17.2333 12.1176C17.4056 12.2944 17.5785 12.4722 17.7099 12.608C17.7757 12.6759 17.8308 12.733 17.8702 12.7742C17.89 12.7948 17.9054 12.811 17.9161 12.8225C17.9332 12.8407 17.928 12.836 17.9202 12.8253L18.2435 12.5898ZM16.834 11.1357C16.8309 11.1325 16.8261 11.1244 16.8261 11.1114C16.8261 11.0984 16.8309 11.0904 16.834 11.0872L16.5471 10.8085C16.3858 10.9745 16.3858 11.2483 16.5471 11.4144L16.834 11.1357ZM16.835 11.0861L17.4105 10.4848L17.1215 10.2082L16.546 10.8096L16.835 11.0861ZM17.4094 10.4858C17.8634 10.0185 18.5924 10.0185 19.0463 10.4858L19.3333 10.2072C18.7222 9.57802 17.7335 9.57802 17.1225 10.2072L17.4094 10.4858ZM19.0463 10.4858L20.1628 11.6354L20.4498 11.3568L19.3333 10.2072L19.0463 10.4858ZM20.1628 11.6354C20.6108 12.0966 20.6123 12.8583 20.1617 13.3299L20.4509 13.6063C21.0481 12.9813 21.0497 11.9744 20.4498 11.3568L20.1628 11.6354Z" fill="url(#paint3_linear_4015_569)" fill-opacity="0.5" mask="url(#path-5-inside-2_4015_569)"/>
</g>
<defs>
<filter id="filter0_f_4015_569" x="0.17981" y="0.366943" width="21.4381" height="21.5405" filterUnits="userSpaceOnUse" color-interpolation-filters="sRGB">
<feFlood flood-opacity="0" result="BackgroundImageFix"/>
<feBlend mode="normal" in="SourceGraphic" in2="BackgroundImageFix" result="shape"/>
<feGaussianBlur stdDeviation="2" result="effect1_foregroundBlur_4015_569"/>
</filter>
<filter id="filter1_b_4015_569" x="2.3053" y="1.79565" width="26.1947" height="26.7043" filterUnits="userSpaceOnUse" color-interpolation-filters="sRGB">
<feFlood flood-opacity="0" result="BackgroundImageFix"/>
<feGaussianBlur in="BackgroundImageFix" stdDeviation="2"/>
<feComposite in2="SourceAlpha" operator="in" result="effect1_backgroundBlur_4015_569"/>
<feBlend mode="normal" in="SourceGraphic" in2="effect1_backgroundBlur_4015_569" result="shape"/>
</filter>
<filter id="filter2_bd_4015_569" x="6.99634" y="5.9353" width="19.7029" height="19.9705" filterUnits="userSpaceOnUse" color-interpolation-filters="sRGB">
<feFlood flood-opacity="0" result="BackgroundImageFix"/>
<feGaussianBlur in="BackgroundImageFix" stdDeviation="2"/>
<feComposite in2="SourceAlpha" operator="in" result="effect1_backgroundBlur_4015_569"/>
<feColorMatrix in="SourceAlpha" type="matrix" values="0 0 0 0 0 0 0 0 0 0 0 0 0 0 0 0 0 0 127 0" result="hardAlpha"/>
<feOffset dx="2" dy="2"/>
<feGaussianBlur stdDeviation="2"/>
<feColorMatrix type="matrix" values="0 0 0 0 0.369983 0 0 0 0 0.879167 0 0 0 0 0.669503 0 0 0 0.5 0"/>
<feBlend mode="normal" in2="effect1_backgroundBlur_4015_569" result="effect2_dropShadow_4015_569"/>
<feBlend mode="normal" in="SourceGraphic" in2="effect2_dropShadow_4015_569" result="shape"/>
</filter>
<linearGradient id="paint0_linear_4015_569" x1="16.4004" y1="1.09264" x2="8.64454" y2="16.8629" gradientUnits="userSpaceOnUse">
<stop stop-color="#57FFBA"/>
<stop offset="1" stop-color="#2CE398"/>
</linearGradient>
<linearGradient id="paint1_linear_4015_569" x1="9.54241" y1="8.35823" x2="20.901" y2="22.0211" gradientUnits="userSpaceOnUse">
<stop stop-color="white" stop-opacity="0.5"/>
<stop offset="1" stop-color="white" stop-opacity="0"/>
</linearGradient>
<linearGradient id="paint2_linear_4015_569" x1="20.0113" y1="11.7358" x2="9.20259" y2="12.0787" gradientUnits="userSpaceOnUse">
<stop stop-color="white"/>
<stop offset="1" stop-color="white" stop-opacity="0.2"/>
</linearGradient>
<linearGradient id="paint3_linear_4015_569" x1="12.0416" y1="13.2799" x2="20.2807" y2="13.3242" gradientUnits="userSpaceOnUse">
<stop stop-color="white"/>
<stop offset="1" stop-color="white" stop-opacity="0"/>
</linearGradient>
</defs>
</svg>
