<svg width="33" height="32" viewBox="0 0 33 32" fill="none" xmlns="http://www.w3.org/2000/svg">
<path d="M12.1235 4.34351L5.9385 6.76748C3.52014 7.71526 2.56118 10.0451 3.55408 12.5624L5.84562 18.372C6.83571 20.8821 9.12977 21.9371 11.5481 20.9893L17.7331 18.5653C20.1515 17.6175 21.1033 15.2905 20.1132 12.7803L17.8217 6.97073C16.8288 4.45347 14.5419 3.39572 12.1235 4.34351Z" fill="url(#paint0_linear_1_18885)"/>
<g opacity="0.5" filter="url(#filter0_f_1_18885)">
<path d="M18.7753 12.8954L17.2301 8.84538C16.6696 7.37633 15.3767 6.9118 13.7205 7.58142L8.1113 9.84938C6.42799 10.53 5.80949 11.7673 6.36997 13.2364L7.91516 17.2864C8.48468 18.7792 9.74662 19.2283 11.4299 18.5477L17.0392 16.2797C18.6953 15.6101 19.3448 14.3881 18.7753 12.8954Z" fill="#FF624D"/>
</g>
<g filter="url(#filter1_b_1_18885)">
<path d="M24.9693 15.1165L24.8627 14.9049C24.5747 14.3566 24.244 13.7218 24.0413 13.3563C23.5507 12.4906 22.708 12.0096 21.6733 12H16.6493C15.6147 12.0096 14.7827 12.4906 14.292 13.3563C14.0787 13.741 13.716 14.4336 13.4173 15.0011L13.3533 15.1165C13.3213 15.1935 13.236 15.232 13.1507 15.232C10.58 15.232 8.5 17.1173 8.5 19.4258V25.1395C8.5 27.448 10.58 29.3333 13.1507 29.3333H25.1827C27.7427 29.3333 29.8333 27.448 29.8333 25.1395V19.4258C29.8333 17.1173 27.7427 15.232 25.1827 15.232C25.0867 15.232 25.012 15.1839 24.9693 15.1165Z" fill="#FFAC95" fill-opacity="0.4"/>
<path d="M13.3088 14.6703C13.271 14.7424 13.2337 14.8133 13.1974 14.8823L13.1421 14.982C10.4618 14.9862 8.25 16.9585 8.25 19.4258V25.1395C8.25 27.6094 10.4665 29.5833 13.1507 29.5833H25.1827C27.8558 29.5833 30.0833 27.6098 30.0833 25.1395V19.4258C30.0833 16.9555 27.8558 14.982 25.1827 14.982C25.1822 14.982 25.1818 14.982 25.1815 14.9819L25.0859 14.7924L25.0859 14.7924L25.084 14.7887C25.0351 14.6955 24.9848 14.5996 24.934 14.5029C24.6874 14.0325 24.4296 13.5409 24.26 13.235L24.26 13.235L24.2588 13.233C23.7218 12.2856 22.7947 11.7604 21.6757 11.75V11.75H21.6733L16.6493 11.75L16.647 11.75C15.5269 11.7604 14.611 12.2865 14.0745 13.233L14.0745 13.233L14.0734 13.235C13.8848 13.5751 13.5814 14.1521 13.3088 14.6703Z" stroke="url(#paint1_linear_1_18885)" stroke-width="0.5" stroke-linecap="round" stroke-linejoin="round"/>
</g>
<g filter="url(#filter2_bd_1_18885)">
<mask id="path-5-inside-1_1_18885" fill="white">
<path fill-rule="evenodd" clip-rule="evenodd" d="M22.5423 17.4332C22.6898 17.9355 23.1985 18.2226 23.687 18.0792C24.1754 17.9358 24.458 17.4164 24.3106 16.9141C24.1631 16.4118 23.6416 16.1175 23.1532 16.2609C22.6647 16.4043 22.3949 16.9309 22.5423 17.4332ZM22.4284 24.057C21.9442 24.9739 21.1166 25.697 20.0615 26.0067C19.0358 26.3079 17.9575 26.1771 17.0065 25.6488C16.0624 25.1076 15.3729 24.2407 15.0632 23.1859C14.7467 22.144 14.8582 21.042 15.36 20.0763C15.8715 19.1078 16.7177 18.412 17.7435 18.1108C18.7692 17.8097 19.8573 17.9376 20.7984 18.4688C21.7426 19.01 22.4351 19.8869 22.7418 20.9316C23.0535 22.0295 22.9127 23.1402 22.4284 24.057ZM18.1859 19.6178C17.5509 19.8042 17.0287 20.2303 16.7081 20.8372C16.3944 21.4313 16.3301 22.1158 16.5256 22.7458L16.5286 22.7558C16.7203 23.4088 17.1444 23.9499 17.7295 24.28C18.3145 24.6102 18.9842 24.6864 19.6192 24.5C20.9282 24.1157 21.6619 22.7109 21.2764 21.362C21.0847 20.709 20.6606 20.1679 20.0756 19.8377C19.4905 19.5076 18.8209 19.4314 18.1859 19.6178Z"/>
</mask>
<path fill-rule="evenodd" clip-rule="evenodd" d="M22.5423 17.4332C22.6898 17.9355 23.1985 18.2226 23.687 18.0792C24.1754 17.9358 24.458 17.4164 24.3106 16.9141C24.1631 16.4118 23.6416 16.1175 23.1532 16.2609C22.6647 16.4043 22.3949 16.9309 22.5423 17.4332ZM22.4284 24.057C21.9442 24.9739 21.1166 25.697 20.0615 26.0067C19.0358 26.3079 17.9575 26.1771 17.0065 25.6488C16.0624 25.1076 15.3729 24.2407 15.0632 23.1859C14.7467 22.144 14.8582 21.042 15.36 20.0763C15.8715 19.1078 16.7177 18.412 17.7435 18.1108C18.7692 17.8097 19.8573 17.9376 20.7984 18.4688C21.7426 19.01 22.4351 19.8869 22.7418 20.9316C23.0535 22.0295 22.9127 23.1402 22.4284 24.057ZM18.1859 19.6178C17.5509 19.8042 17.0287 20.2303 16.7081 20.8372C16.3944 21.4313 16.3301 22.1158 16.5256 22.7458L16.5286 22.7558C16.7203 23.4088 17.1444 23.9499 17.7295 24.28C18.3145 24.6102 18.9842 24.6864 19.6192 24.5C20.9282 24.1157 21.6619 22.7109 21.2764 21.362C21.0847 20.709 20.6606 20.1679 20.0756 19.8377C19.4905 19.5076 18.8209 19.4314 18.1859 19.6178Z" fill="url(#paint2_linear_1_18885)"/>
<path d="M23.687 18.0792L23.6306 17.8873L23.6306 17.8873L23.687 18.0792ZM22.4284 24.057L22.6053 24.1504L22.6053 24.1504L22.4284 24.057ZM17.0065 25.6488L16.9071 25.8223L16.9094 25.8236L17.0065 25.6488ZM15.0632 23.1859L15.2551 23.1296L15.2546 23.1278L15.0632 23.1859ZM15.36 20.0763L15.1831 19.9829L15.1825 19.9841L15.36 20.0763ZM17.7435 18.1108L17.6871 17.9189L17.6871 17.9189L17.7435 18.1108ZM20.7984 18.4688L20.8979 18.2952L20.8967 18.2946L20.7984 18.4688ZM22.7418 20.9316L22.9342 20.877L22.9337 20.8753L22.7418 20.9316ZM16.7081 20.8372L16.885 20.9306L16.885 20.9306L16.7081 20.8372ZM16.5256 22.7458L16.7176 22.6894L16.7167 22.6865L16.5256 22.7458ZM16.5286 22.7558L16.3367 22.8122L16.5286 22.7558ZM17.7295 24.28L17.8278 24.1059L17.8278 24.1059L17.7295 24.28ZM21.2764 21.362L21.4687 21.307L21.4683 21.3056L21.2764 21.362ZM20.0756 19.8377L19.9773 20.0119L19.9773 20.0119L20.0756 19.8377ZM23.6306 17.8873C23.2532 17.9981 22.8521 17.7783 22.7342 17.3769L22.3504 17.4896C22.5275 18.0927 23.1439 18.4471 23.7433 18.2711L23.6306 17.8873ZM24.1186 16.9704C24.2357 17.369 24.0108 17.7757 23.6306 17.8873L23.7433 18.2711C24.34 18.0959 24.6804 17.4637 24.5025 16.8578L24.1186 16.9704ZM23.2095 16.4528C23.587 16.342 24.0008 16.5691 24.1186 16.9704L24.5025 16.8578C24.3254 16.2546 23.6963 15.893 23.0968 16.069L23.2095 16.4528ZM22.7342 17.3769C22.6156 16.9727 22.8348 16.5629 23.2095 16.4528L23.0968 16.069C22.4947 16.2458 22.1742 16.8892 22.3504 17.4896L22.7342 17.3769ZM20.1179 26.1986C21.2279 25.8727 22.0974 25.1121 22.6053 24.1504L22.2516 23.9636C21.791 24.8357 21.0053 25.5212 20.0052 25.8148L20.1179 26.1986ZM16.9094 25.8236C17.9054 26.3769 19.0388 26.5154 20.1179 26.1986L20.0052 25.8148C19.0327 26.1003 18.0096 25.9772 17.1037 25.474L16.9094 25.8236ZM14.8713 23.2423C15.1956 24.3469 15.9185 25.2556 16.9071 25.8223L17.106 25.4753C16.2064 24.9596 15.5501 24.1345 15.2551 23.1296L14.8713 23.2423ZM15.1825 19.9841C14.6573 20.995 14.5398 22.1509 14.8718 23.244L15.2546 23.1278C14.9536 22.1371 15.0592 21.089 15.5374 20.1685L15.1825 19.9841ZM17.6871 17.9189C16.6084 18.2356 15.7193 18.9676 15.1831 19.9829L15.5368 20.1697C16.0236 19.2479 16.8269 18.5883 17.7998 18.3027L17.6871 17.9189ZM20.8967 18.2946C19.9092 17.7373 18.7654 17.6024 17.6871 17.9189L17.7998 18.3027C18.773 18.017 19.8054 18.138 20.7001 18.6429L20.8967 18.2946ZM22.9337 20.8753C22.6124 19.781 21.8867 18.8621 20.8979 18.2952L20.699 18.6423C21.5984 19.1578 22.2577 19.9928 22.5499 20.988L22.9337 20.8753ZM22.6053 24.1504C23.1132 23.1886 23.2601 22.025 22.9342 20.877L22.5494 20.9863C22.8469 22.034 22.7121 23.0917 22.2516 23.9636L22.6053 24.1504ZM16.885 20.9306C17.1807 20.3706 17.6599 19.9806 18.2422 19.8097L18.1295 19.4259C17.4418 19.6278 16.8766 20.09 16.5313 20.7438L16.885 20.9306ZM16.7167 22.6865C16.5371 22.1079 16.5957 21.4783 16.885 20.9306L16.5313 20.7438C16.1931 21.3842 16.1231 22.1236 16.3346 22.8051L16.7167 22.6865ZM16.7205 22.6995L16.7176 22.6894L16.3337 22.8021L16.3367 22.8122L16.7205 22.6995ZM17.8278 24.1059C17.2892 23.8019 16.8979 23.3038 16.7205 22.6995L16.3367 22.8122C16.5427 23.5138 16.9996 24.0978 17.6312 24.4542L17.8278 24.1059ZM19.5628 24.3081C18.98 24.4792 18.3661 24.4096 17.8278 24.1059L17.6312 24.4542C18.263 24.8108 18.9884 24.8936 19.6755 24.6919L19.5628 24.3081ZM21.0841 21.4169C21.4413 22.6672 20.7597 23.9567 19.5628 24.3081L19.6755 24.6919C21.0968 24.2746 21.8824 22.7547 21.4687 21.307L21.0841 21.4169ZM19.9773 20.0119C20.5158 20.3158 20.9071 20.814 21.0845 21.4183L21.4683 21.3056C21.2623 20.604 20.8054 20.02 20.1738 19.6636L19.9773 20.0119ZM18.2422 19.8097C18.8251 19.6386 19.439 19.7081 19.9773 20.0119L20.1738 19.6636C19.542 19.307 18.8166 19.2242 18.1295 19.4259L18.2422 19.8097Z" fill="url(#paint3_linear_1_18885)" fill-opacity="0.5" mask="url(#path-5-inside-1_1_18885)"/>
</g>
<path d="M20.5 4.09508C20.5 3.71619 20.6536 3.35283 20.9271 3.08492C21.2006 2.81701 21.5716 2.6665 21.9583 2.6665H22.5417C22.619 2.6665 22.6932 2.69661 22.7479 2.75019C22.8026 2.80377 22.8333 2.87644 22.8333 2.95222C22.8333 3.02799 22.8026 3.10067 22.7479 3.15425C22.6932 3.20783 22.619 3.23793 22.5417 3.23793H21.9583C21.7263 3.23793 21.5037 3.32824 21.3396 3.48898C21.1755 3.64973 21.0833 3.86775 21.0833 4.09508V4.6665C21.0833 4.74228 21.0526 4.81495 20.9979 4.86853C20.9432 4.92212 20.869 4.95222 20.7917 4.95222C20.7143 4.95222 20.6401 4.92212 20.5854 4.86853C20.5307 4.81495 20.5 4.74228 20.5 4.6665V4.09508ZM27.5 2.95222C27.5 2.87644 27.5307 2.80377 27.5854 2.75019C27.6401 2.69661 27.7143 2.6665 27.7917 2.6665H28.375C28.7618 2.6665 29.1327 2.81701 29.4062 3.08492C29.6797 3.35283 29.8333 3.71619 29.8333 4.09508V4.6665C29.8333 4.74228 29.8026 4.81495 29.7479 4.86853C29.6932 4.92212 29.619 4.95222 29.5417 4.95222C29.4643 4.95222 29.3901 4.92212 29.3354 4.86853C29.2807 4.81495 29.25 4.74228 29.25 4.6665V4.09508C29.25 3.86775 29.1578 3.64973 28.9937 3.48898C28.8296 3.32824 28.6071 3.23793 28.375 3.23793H27.7917C27.7143 3.23793 27.6401 3.20783 27.5854 3.15425C27.5307 3.10067 27.5 3.02799 27.5 2.95222ZM20.7917 8.38079C20.869 8.38079 20.9432 8.41089 20.9979 8.46447C21.0526 8.51806 21.0833 8.59073 21.0833 8.6665V9.23793C21.0833 9.46526 21.1755 9.68328 21.3396 9.84402C21.5037 10.0048 21.7263 10.0951 21.9583 10.0951H22.5417C22.619 10.0951 22.6932 10.1252 22.7479 10.1788C22.8026 10.2323 22.8333 10.305 22.8333 10.3808C22.8333 10.4566 22.8026 10.5292 22.7479 10.5828C22.6932 10.6364 22.619 10.6665 22.5417 10.6665H21.9583C21.5716 10.6665 21.2006 10.516 20.9271 10.2481C20.6536 9.98018 20.5 9.61681 20.5 9.23793V8.6665C20.5 8.59073 20.5307 8.51806 20.5854 8.46447C20.6401 8.41089 20.7143 8.38079 20.7917 8.38079ZM29.5417 8.38079C29.619 8.38079 29.6932 8.41089 29.7479 8.46447C29.8026 8.51806 29.8333 8.59073 29.8333 8.6665V9.23793C29.8333 9.61681 29.6797 9.98018 29.4062 10.2481C29.1327 10.516 28.7618 10.6665 28.375 10.6665H27.7917C27.7143 10.6665 27.6401 10.6364 27.5854 10.5828C27.5307 10.5292 27.5 10.4566 27.5 10.3808C27.5 10.305 27.5307 10.2323 27.5854 10.1788C27.6401 10.1252 27.7143 10.0951 27.7917 10.0951H28.375C28.6071 10.0951 28.8296 10.0048 28.9937 9.84402C29.1578 9.68328 29.25 9.46526 29.25 9.23793V8.6665C29.25 8.59073 29.2807 8.51806 29.3354 8.46447C29.3901 8.41089 29.4643 8.38079 29.5417 8.38079ZM22.5417 4.38079C22.619 4.38079 22.6932 4.41089 22.7479 4.46447C22.8026 4.51806 22.8333 4.59073 22.8333 4.6665V8.6665C22.8333 8.74228 22.8026 8.81495 22.7479 8.86853C22.6932 8.92212 22.619 8.95222 22.5417 8.95222C22.4643 8.95222 22.3901 8.92212 22.3354 8.86853C22.2807 8.81495 22.25 8.74228 22.25 8.6665V4.6665C22.25 4.59073 22.2807 4.51806 22.3354 4.46447C22.3901 4.41089 22.4643 4.38079 22.5417 4.38079ZM24.5833 4.6665C24.5833 4.59073 24.5526 4.51806 24.4979 4.46447C24.4432 4.41089 24.369 4.38079 24.2917 4.38079C24.2143 4.38079 24.1401 4.41089 24.0854 4.46447C24.0307 4.51806 24 4.59073 24 4.6665V8.6665C24 8.74228 24.0307 8.81495 24.0854 8.86853C24.1401 8.92212 24.2143 8.95222 24.2917 8.95222C24.369 8.95222 24.4432 8.92212 24.4979 8.86853C24.5526 8.81495 24.5833 8.74228 24.5833 8.6665V4.6665ZM26.0417 4.38079C26.119 4.38079 26.1932 4.41089 26.2479 4.46447C26.3026 4.51806 26.3333 4.59073 26.3333 4.6665V8.6665C26.3333 8.74228 26.3026 8.81495 26.2479 8.86853C26.1932 8.92212 26.119 8.95222 26.0417 8.95222C25.9643 8.95222 25.8901 8.92212 25.8354 8.86853C25.7807 8.81495 25.75 8.74228 25.75 8.6665V4.6665C25.75 4.59073 25.7807 4.51806 25.8354 4.46447C25.8901 4.41089 25.9643 4.38079 26.0417 4.38079ZM28.0833 4.6665C28.0833 4.59073 28.0526 4.51806 27.9979 4.46447C27.9432 4.41089 27.869 4.38079 27.7917 4.38079C27.7143 4.38079 27.6401 4.41089 27.5854 4.46447C27.5307 4.51806 27.5 4.59073 27.5 4.6665V8.6665C27.5 8.74228 27.5307 8.81495 27.5854 8.86853C27.6401 8.92212 27.7143 8.95222 27.7917 8.95222C27.869 8.95222 27.9432 8.92212 27.9979 8.86853C28.0526 8.81495 28.0833 8.74228 28.0833 8.6665V4.6665Z" fill="url(#paint4_linear_1_18885)"/>
<defs>
<filter id="filter0_f_1_18885" x="3.16846" y="4.28125" width="18.8091" height="17.5762" filterUnits="userSpaceOnUse" color-interpolation-filters="sRGB">
<feFlood flood-opacity="0" result="BackgroundImageFix"/>
<feBlend mode="normal" in="SourceGraphic" in2="BackgroundImageFix" result="shape"/>
<feGaussianBlur stdDeviation="1.5" result="effect1_foregroundBlur_1_18885"/>
</filter>
<filter id="filter1_b_1_18885" x="5" y="8.5" width="28.3333" height="24.3335" filterUnits="userSpaceOnUse" color-interpolation-filters="sRGB">
<feFlood flood-opacity="0" result="BackgroundImageFix"/>
<feGaussianBlur in="BackgroundImageFix" stdDeviation="1.5"/>
<feComposite in2="SourceAlpha" operator="in" result="effect1_backgroundBlur_1_18885"/>
<feBlend mode="normal" in="SourceGraphic" in2="effect1_backgroundBlur_1_18885" result="shape"/>
</filter>
<filter id="filter2_bd_1_18885" x="11.8857" y="13.2246" width="16.4639" height="16.9409" filterUnits="userSpaceOnUse" color-interpolation-filters="sRGB">
<feFlood flood-opacity="0" result="BackgroundImageFix"/>
<feGaussianBlur in="BackgroundImageFix" stdDeviation="1.5"/>
<feComposite in2="SourceAlpha" operator="in" result="effect1_backgroundBlur_1_18885"/>
<feColorMatrix in="SourceAlpha" type="matrix" values="0 0 0 0 0 0 0 0 0 0 0 0 0 0 0 0 0 0 127 0" result="hardAlpha"/>
<feOffset dx="1" dy="1"/>
<feGaussianBlur stdDeviation="1.5"/>
<feColorMatrix type="matrix" values="0 0 0 0 1 0 0 0 0 0.447059 0 0 0 0 0.368627 0 0 0 0.5 0"/>
<feBlend mode="normal" in2="effect1_backgroundBlur_1_18885" result="effect2_dropShadow_1_18885"/>
<feBlend mode="normal" in="SourceGraphic" in2="effect2_dropShadow_1_18885" result="shape"/>
</filter>
<linearGradient id="paint0_linear_1_18885" x1="13.2583" y1="13.2086" x2="3.15341" y2="24.2304" gradientUnits="userSpaceOnUse">
<stop stop-color="#FFA78F"/>
<stop offset="1" stop-color="#F23E2C"/>
</linearGradient>
<linearGradient id="paint1_linear_1_18885" x1="11.8808" y1="14.0344" x2="26.8872" y2="31.7995" gradientUnits="userSpaceOnUse">
<stop stop-color="white" stop-opacity="0.6"/>
<stop offset="1" stop-color="white" stop-opacity="0.15"/>
</linearGradient>
<linearGradient id="paint2_linear_1_18885" x1="23.7498" y1="17.6818" x2="12.5214" y2="21.4832" gradientUnits="userSpaceOnUse">
<stop stop-color="white"/>
<stop offset="1" stop-color="white" stop-opacity="0.2"/>
</linearGradient>
<linearGradient id="paint3_linear_1_18885" x1="24.8497" y1="20.369" x2="15.0864" y2="23.7982" gradientUnits="userSpaceOnUse">
<stop stop-color="white"/>
<stop offset="1" stop-color="white" stop-opacity="0"/>
</linearGradient>
<linearGradient id="paint4_linear_1_18885" x1="27.9667" y1="5.6665" x2="13.8008" y2="10.1877" gradientUnits="userSpaceOnUse">
<stop stop-color="#FFA78F"/>
<stop offset="1" stop-color="#F23E2C"/>
</linearGradient>
</defs>
</svg>
